<?xml version="1.0" encoding="UTF-8"?>
<svg version="1.1" xmlns="http://www.w3.org/2000/svg" width="180" height="180">
<path d="M0 0 C1.55269844 -0.01007584 1.55269844 -0.01007584 3.13676453 -0.02035522 C6.54736173 -0.03929948 9.9577617 -0.04325792 13.3684082 -0.04541016 C15.75104349 -0.05184151 18.133678 -0.05857012 20.51631165 -0.06558228 C25.50861439 -0.07754681 30.50084799 -0.08126403 35.49316406 -0.08007812 C41.86710831 -0.07987521 48.24060534 -0.10715355 54.61444378 -0.14162254 C59.53634141 -0.1639438 64.45813241 -0.16791402 69.38007545 -0.16685867 C71.72864126 -0.16920767 74.07721032 -0.17799132 76.42572594 -0.19352341 C94.19565594 -0.30002547 107.88637471 0.39727267 121.48168945 13.16943359 C130.55521813 22.84916785 133.78437277 33.85502775 133.7722168 46.80883789 C133.77893402 47.84397018 133.78565125 48.87910248 133.79257202 49.94560242 C133.81151628 53.35619962 133.81547472 56.76659959 133.81762695 60.17724609 C133.8240583 62.55988138 133.83078691 64.94251589 133.83779907 67.32514954 C133.84976361 72.31745228 133.85348083 77.30968588 133.85229492 82.30200195 C133.852092 88.6759462 133.87937035 95.04944323 133.91383934 101.42328167 C133.9361606 106.3451793 133.94013082 111.2669703 133.93907547 116.18891335 C133.94142447 118.53747915 133.95020811 120.88604821 133.9657402 123.23456383 C134.07224227 141.00449383 133.37494413 154.6952126 120.6027832 168.29052734 C110.92304895 177.36405602 99.91718905 180.59321066 86.96337891 180.58105469 C85.92824661 180.58777191 84.89311432 180.59448914 83.82661438 180.60140991 C80.41601717 180.62035417 77.00561721 180.62431261 73.5949707 180.62646484 C71.21233541 180.63289619 68.82970091 180.6396248 66.44706726 180.64663696 C61.45476451 180.6586015 56.46253091 180.66231872 51.47021484 180.66113281 C45.0962706 180.66092989 38.72277356 180.68820824 32.34893513 180.72267723 C27.4270375 180.74499849 22.5052465 180.74896871 17.58330345 180.74791336 C15.23473765 180.75026236 12.88616859 180.759046 10.53765297 180.77457809 C-7.23227703 180.88108016 -20.9229958 180.18378202 -34.51831055 167.41162109 C-43.59183922 157.73188684 -46.82099386 146.72602694 -46.80883789 133.7722168 C-46.81555511 132.7370845 -46.82227234 131.70195221 -46.82919312 130.63545227 C-46.84813737 127.22485506 -46.85209581 123.8144551 -46.85424805 120.40380859 C-46.8606794 118.0211733 -46.86740801 115.6385388 -46.87442017 113.25590515 C-46.8863847 108.2636024 -46.89010192 103.2713688 -46.88891602 98.27905273 C-46.8887131 91.90510849 -46.91599144 85.53161145 -46.95046043 79.15777302 C-46.97278169 74.23587539 -46.97675192 69.31408439 -46.97569656 64.39214134 C-46.97804556 62.04357554 -46.98682921 59.69500648 -47.0023613 57.34649086 C-47.10886336 39.57656086 -46.41156522 25.88584209 -33.6394043 12.29052734 C-23.95967004 3.21699867 -12.95381015 -0.01215597 0 0 Z " fill="#FEFEFE" transform="translate(46.518310546875,-0.29052734375)"/>
<path d="M0 0 C4.4005959 3.30234047 6.84791022 7.85988293 9.26953125 12.703125 C9.84653557 19.29428972 9.96461079 25.99782923 6.26953125 31.703125 C0.63788249 37.92002353 -4.52823491 41.53478306 -12.98046875 42.140625 C-19.42270259 41.95594039 -25.11961428 39.37319472 -29.625 34.765625 C-34.84940726 28.05397772 -36.74608449 22.21867233 -35.73046875 13.703125 C-33.83476739 7.00817969 -29.30448482 2.6332418 -23.73046875 -1.296875 C-15.90510895 -5.2095549 -7.47673045 -4.09748378 0 0 Z " fill="#829BE9" transform="translate(136.73046875,37.296875)"/>
</svg>
