<?xml version="1.0" encoding="UTF-8"?>
<svg version="1.1" xmlns="http://www.w3.org/2000/svg" width="192" height="192">
<path d="M0 0 C0.96419861 -0.0071553 1.92839722 -0.01431061 2.92181396 -0.02168274 C3.97326599 -0.02437164 5.02471802 -0.02706055 6.10803223 -0.02983093 C7.220755 -0.03640213 8.33347778 -0.04297333 9.47991943 -0.04974365 C13.16650461 -0.06947022 16.85304899 -0.08113992 20.53967285 -0.09111023 C21.80080399 -0.09518576 23.06193512 -0.09926128 24.36128235 -0.10346031 C30.35205614 -0.12217124 36.34280532 -0.13673478 42.33360052 -0.14507228 C49.22276778 -0.15482081 56.1116117 -0.18107956 63.00066519 -0.22157317 C68.98713973 -0.25553889 74.97345916 -0.26723114 80.96003723 -0.27127647 C83.49561246 -0.2761321 86.0311845 -0.28771664 88.56669617 -0.30631447 C92.12760721 -0.33080318 95.68768681 -0.32972225 99.24865723 -0.32279968 C100.28391541 -0.33560974 101.31917358 -0.3484198 102.38580322 -0.36161804 C114.36858024 -0.27729516 123.9557063 3.63243993 133.19592285 11.14717102 C133.82111816 11.62412415 134.44631348 12.10107727 135.0904541 12.59248352 C141.8887488 18.45466992 147.46838232 29.39558445 149.19592285 38.14717102 C149.29047574 39.74648873 149.33490576 41.3491588 149.34309387 42.95124817 C149.35382683 44.39754608 149.35382683 44.39754608 149.36477661 45.87306213 C149.36746552 46.92451416 149.37015442 47.97596619 149.3729248 49.0592804 C149.379496 50.17200317 149.3860672 51.28472595 149.39283752 52.4311676 C149.41256409 56.11775278 149.42423379 59.80429716 149.4342041 63.49092102 C149.43827963 64.75205215 149.44235516 66.01318329 149.44655418 67.31253052 C149.46526511 73.3033043 149.47982865 79.29405349 149.48816615 85.28484869 C149.49791468 92.17401595 149.52417344 99.06285987 149.56466705 105.95191336 C149.59863276 111.9383879 149.61032501 117.92470733 149.61437035 123.9112854 C149.61922597 126.44686063 149.63081051 128.98243266 149.64940834 131.51794434 C149.67389706 135.07885538 149.67281613 138.63893498 149.66589355 142.1999054 C149.68510864 143.75279266 149.68510864 143.75279266 149.70471191 145.33705139 C149.62038903 157.31982841 145.71065394 166.90695447 138.19592285 176.14717102 C137.71896973 176.77236633 137.2420166 177.39756165 136.75061035 178.04170227 C130.88842396 184.83999697 119.94750943 190.41963049 111.19592285 192.14717102 C109.59660514 192.24172391 107.99393507 192.28615393 106.3918457 192.29434204 C105.42764709 192.30149734 104.46344849 192.30865265 103.47003174 192.31602478 C101.8928537 192.32005814 101.8928537 192.32005814 100.28381348 192.32417297 C99.1710907 192.33074417 98.05836792 192.33731537 96.91192627 192.34408569 C93.2253411 192.36381226 89.53879672 192.37548196 85.85217285 192.38545227 C83.96047615 192.39156556 83.96047615 192.39156556 82.03056335 192.39780235 C76.03978957 192.41651328 70.04904038 192.43107682 64.05824518 192.43941432 C57.16907792 192.44916285 50.280234 192.4754216 43.39118052 192.51591522 C37.40470597 192.54988093 31.41838654 192.56157318 25.43180847 192.56561852 C22.89623324 192.57047414 20.36066121 192.58205868 17.82514954 192.60065651 C14.2642385 192.62514523 10.70415889 192.62406429 7.14318848 192.61714172 C5.59030121 192.63635681 5.59030121 192.63635681 4.00604248 192.65596008 C-7.97673454 192.5716372 -17.5638606 188.66190211 -26.80407715 181.14717102 C-27.42927246 180.6702179 -28.05446777 180.19326477 -28.6986084 179.70185852 C-35.49690309 173.83967212 -41.07653661 162.89875759 -42.80407715 154.14717102 C-42.89863003 152.54785331 -42.94306005 150.94518324 -42.95124817 149.34309387 C-42.96198112 147.89679596 -42.96198112 147.89679596 -42.97293091 146.42127991 C-42.97561981 145.36982788 -42.97830872 144.31837585 -42.9810791 143.23506165 C-42.9876503 142.12233887 -42.9942215 141.00961609 -43.00099182 139.86317444 C-43.02071839 136.17658926 -43.03238809 132.49004488 -43.0423584 128.80342102 C-43.04643393 127.54228989 -43.05050945 126.28115875 -43.05470848 124.98181152 C-43.07341941 118.99103774 -43.08798295 113.00028855 -43.09632045 107.00949335 C-43.10606897 100.12032609 -43.13232773 93.23148217 -43.17282134 86.34242868 C-43.20678706 80.35595414 -43.21847931 74.36963471 -43.22252464 68.38305664 C-43.22738027 65.84748141 -43.23896481 63.31190938 -43.25756264 60.77639771 C-43.28205135 57.21548666 -43.28097042 53.65540706 -43.27404785 50.09443665 C-43.28685791 49.05917847 -43.29966797 48.02392029 -43.31286621 46.95729065 C-43.22854333 34.97451363 -39.31880824 25.38738757 -31.80407715 16.14717102 C-31.32712402 15.52197571 -30.8501709 14.8967804 -30.35876465 14.25263977 C-23.48606597 6.28246827 -10.46971917 0.05350966 0 0 Z " fill="#FEFEFE" transform="translate(42.8040771484375,-0.1471710205078125)"/>
<path d="M0 0 C6.05539809 3.87545478 10.97344244 9.08882968 13.1875 16 C14.11951891 23.02447936 13.67584998 28.93546745 9.80859375 34.9609375 C5.6618188 40.17688093 0.92215926 44.81153072 -5.8125 46 C-12.98141319 46.69590375 -18.94679862 46.46796805 -24.8125 42 C-31.62440514 35.7325633 -34.70501788 30.37156675 -35.1875 21.0625 C-35.00305886 14.64588969 -33.1328836 10.44159766 -28.71875 5.796875 C-20.52879781 -1.7924807 -10.69533116 -5.44856493 0 0 Z " fill="#829BE9" transform="translate(142.8125,38)"/>
</svg>
