<?xml version="1.0" encoding="UTF-8"?>
<svg version="1.1" xmlns="http://www.w3.org/2000/svg" width="128" height="128">
<path d="M0 0 C0.76670517 -0.00671722 1.53341034 -0.01343445 2.323349 -0.02035522 C4.84478329 -0.03927095 7.36595045 -0.04325623 9.88745117 -0.04541016 C11.65093594 -0.05184287 13.41441965 -0.05857158 15.17790222 -0.06558228 C18.87057976 -0.0775392 22.56316386 -0.08126476 26.25585938 -0.08007812 C30.96998729 -0.0798751 35.68351126 -0.10716715 40.39749622 -0.14162254 C44.03939016 -0.16394417 47.68114 -0.16791405 51.32309532 -0.16685867 C53.06010709 -0.1692071 54.79712328 -0.17798756 56.53406715 -0.19352341 C68.96664745 -0.29430968 77.93364418 0.67226828 87.32885742 9.43115234 C93.8780222 16.23770788 96.42058968 22.62947871 96.40844727 32.17260742 C96.41516449 32.93931259 96.42188171 33.70601776 96.42880249 34.49595642 C96.44771821 37.01739071 96.4517035 39.53855787 96.45385742 42.06005859 C96.46029013 43.82354336 96.46701885 45.58702708 96.47402954 47.35050964 C96.48598647 51.04318718 96.48971203 54.73577128 96.48852539 58.4284668 C96.48832237 63.14259471 96.51561441 67.85611868 96.55006981 72.57010365 C96.57239144 76.21199758 96.57636131 79.85374742 96.57530594 83.49570274 C96.57765436 85.23271451 96.58643483 86.9697307 96.60197067 88.70667458 C96.70275695 101.13925487 95.73617898 110.1062516 86.97729492 119.50146484 C80.17073939 126.05062962 73.77896855 128.5931971 64.23583984 128.58105469 C63.46913467 128.58777191 62.7024295 128.59448914 61.91249084 128.60140991 C59.39105656 128.62032563 56.8698894 128.62431092 54.34838867 128.62646484 C52.5849039 128.63289756 50.82142019 128.63962627 49.05793762 128.64663696 C45.36526009 128.65859389 41.67267599 128.66231945 37.97998047 128.66113281 C33.26585255 128.66092979 28.55232859 128.68822184 23.83834362 128.72267723 C20.19644968 128.74499886 16.55469984 128.74896874 12.91274452 128.74791336 C11.17573276 128.75026178 9.43871656 128.75904225 7.70177269 128.77457809 C-4.73080761 128.87536437 -13.69780433 127.9087864 -23.09301758 119.14990234 C-29.64218236 112.34334681 -32.18474984 105.95157598 -32.17260742 96.40844727 C-32.17932465 95.6417421 -32.18604187 94.87503693 -32.19296265 94.08509827 C-32.21187837 91.56366398 -32.21586365 89.04249682 -32.21801758 86.52099609 C-32.22445029 84.75751132 -32.231179 82.99402761 -32.2381897 81.23054504 C-32.25014663 77.53786751 -32.25387219 73.84528341 -32.25268555 70.15258789 C-32.25248252 65.43845997 -32.27977457 60.72493601 -32.31422997 56.01095104 C-32.33655159 52.3690571 -32.34052147 48.72730726 -32.33946609 45.08535194 C-32.34181452 43.34834018 -32.35059499 41.61132399 -32.36613083 39.87438011 C-32.4669171 27.44179981 -31.50033914 18.47480309 -22.74145508 9.07958984 C-15.93489954 2.53042506 -9.54312871 -0.01214242 0 0 Z " fill="#FEFEFE" transform="translate(31.882080078125,-0.29052734375)"/>
<path d="M0 0 C5.67476113 1.96434039 9.31400331 5.62800662 12 11 C12.59057744 16.67862925 12.29370905 21.16922672 9 26 C5.00950931 29.92664284 1.88359358 32.15032079 -3.75 32.3125 C-8.6322451 32.25622052 -11.25873246 31.29587855 -15 28 C-19.39893104 23.00661882 -20.35676337 20.08984773 -20.28125 13.5390625 C-19.73016315 8.56397287 -16.99302299 5.87480597 -13.375 2.6875 C-8.92314854 -0.47565762 -5.3540278 -0.48837416 0 0 Z " fill="#839CE9" transform="translate(92,24)"/>
</svg>
